<svg width="19" height="21" viewBox="0 0 19 21" fill="none" xmlns="http://www.w3.org/2000/svg">
<path d="M12.9054 21H3.10967C2.50351 20.9986 1.9226 20.757 1.49422 20.3282C1.06584 19.8993 0.82491 19.3181 0.824219 18.7119V5.7961C0.824912 5.18948 1.0662 4.6079 1.49514 4.17895C1.92409 3.75001 2.50567 3.50872 3.11229 3.50803H9.53669C9.74484 3.50807 9.94446 3.59074 10.0917 3.73788L14.961 8.61195C15.0341 8.68487 15.092 8.77146 15.1315 8.86678C15.171 8.9621 15.1914 9.06428 15.1914 9.16747V18.7119C15.1907 19.3182 14.9497 19.8994 14.5212 20.3283C14.0927 20.7572 13.5117 20.9988 12.9054 21V21ZM3.10967 5.07879C2.91993 5.07962 2.73823 5.15554 2.6043 5.28996C2.47037 5.42437 2.39511 5.60635 2.39498 5.7961V18.7119C2.39525 18.9016 2.47055 19.0835 2.60445 19.2179C2.73835 19.3523 2.91997 19.4283 3.10967 19.4292H12.9054C13.0956 19.429 13.2779 19.3533 13.4124 19.2188C13.5468 19.0844 13.6225 18.9021 13.6228 18.7119V9.49262L9.20893 5.07879H3.10967Z" fill="#393939"/>
<path d="M16.1378 17.3478H14.3539C14.1686 17.3478 13.9909 17.2658 13.8599 17.1197C13.7289 16.9736 13.6553 16.7755 13.6553 16.5689C13.6553 16.3623 13.7289 16.1642 13.8599 16.0181C13.9909 15.8721 14.1686 15.79 14.3539 15.79H16.1378C16.307 15.7897 16.4691 15.7147 16.5888 15.5813C16.7084 15.448 16.7757 15.2672 16.7759 15.0786V2.26922C16.7757 2.08063 16.7084 1.89984 16.5888 1.76648C16.4691 1.63313 16.307 1.55809 16.1378 1.55781H7.42371C7.25496 1.55877 7.09339 1.63412 6.97428 1.7674C6.85517 1.90068 6.78818 2.08107 6.78794 2.26922V4.25803C6.78794 4.46461 6.71433 4.66272 6.58331 4.8088C6.45228 4.95487 6.27458 5.03693 6.08928 5.03693C5.90399 5.03693 5.72628 4.95487 5.59526 4.8088C5.46423 4.66272 5.39062 4.46461 5.39062 4.25803V2.26922C5.39112 1.66755 5.60572 1.09069 5.98733 0.665246C6.36894 0.239804 6.88637 0.000549968 7.42604 0H16.1378C16.6775 0.000549968 17.1949 0.239804 17.5765 0.665246C17.9581 1.09069 18.1727 1.66755 18.1732 2.26922V15.0786C18.1727 15.6803 17.9581 16.2571 17.5765 16.6826C17.1949 17.108 16.6775 17.3473 16.1378 17.3478V17.3478Z" fill="#393939"/>
<path d="M14.4094 9.95233H11.0381C10.4315 9.95163 9.84987 9.71035 9.42093 9.2814C8.99198 8.85245 8.75069 8.27088 8.75 7.66425V4.29341C8.75 4.08511 8.83274 3.88535 8.98003 3.73806C9.12732 3.59077 9.32708 3.50803 9.53538 3.50803C9.74367 3.50803 9.94344 3.59077 10.0907 3.73806C10.238 3.88535 10.3208 4.08511 10.3208 4.29341V7.66478C10.3209 7.85498 10.3965 8.03735 10.531 8.17184C10.6655 8.30633 10.8479 8.38195 11.0381 8.38209H14.4094C14.6177 8.38209 14.8175 8.46484 14.9648 8.61212C15.1121 8.75941 15.1948 8.95917 15.1948 9.16747C15.1948 9.37577 15.1121 9.57553 14.9648 9.72282C14.8175 9.8701 14.6177 9.95285 14.4094 9.95285V9.95233Z" fill="#393939"/>
</svg>
